<?xml version="1.0" encoding="UTF-8" standalone="no"?>
<svg
   xmlns:dc="http://purl.org/dc/elements/1.1/"
   xmlns:cc="http://creativecommons.org/ns#"
   xmlns:rdf="http://www.w3.org/1999/02/22-rdf-syntax-ns#"
   xmlns:svg="http://www.w3.org/2000/svg"
   xmlns="http://www.w3.org/2000/svg"
   viewBox="0 0 549.3125 367.98749"
   height="367.98749"
   width="549.3125"
   xml:space="preserve"
   version="1.1"
   id="svg2"><metadata
     id="metadata8"><rdf:RDF><cc:Work
         rdf:about=""><dc:format>image/svg+xml</dc:format><dc:type
           rdf:resource="http://purl.org/dc/dcmitype/StillImage" /><dc:title></dc:title></cc:Work></rdf:RDF></metadata><defs
     id="defs6"><clipPath
       id="clipPath16"
       clipPathUnits="userSpaceOnUse"><path
         id="path18"
         d="m 0,294.39 439.45,0 L 439.45,0 0,0 0,294.39 Z" /></clipPath></defs><g
     transform="matrix(1.25,0,0,-1.25,0,367.9875)"
     id="g10"><g
       id="g12"><g
         clip-path="url(#clipPath16)"
         id="g14"><g
           transform="translate(291.6104,74.1)"
           id="g20"><path
             id="path22"
             style="fill:#1f1f21;fill-opacity:1;fill-rule:nonzero;stroke:none"
             d="m 0,0 c 12.566,-0.004 24.723,-4.474 34.3,-12.61 0.226,-0.192 0.443,-0.396 0.649,-0.61 L 84.1,-64.479 c 0.15,-0.151 0.299,-0.301 0.46,-0.451 15.29,-14 39.54,-11.75 51.669,5.11 30.55,42.46 -4.5,145.09 -43.609,235.94 -0.845,1.916 -2.417,3.417 -4.37,4.17 l -2.521,1 c -2.458,0.96 -4.272,3.089 -4.83,5.67 -1.569,7.229 -6.358,13.343 -13,16.6 -40.389,19.86 -65.7,21.27 -79.109,8.13 -1.479,-1.499 -3.485,-2.36 -5.591,-2.4 l -110.169,0 c -2.127,0.035 -4.154,0.908 -5.64,2.43 -13.4,13.14 -38.71,11.73 -79.1,-8.13 -6.642,-3.257 -11.431,-9.371 -13,-16.6 -0.542,-2.585 -2.345,-4.726 -4.8,-5.7 l -2.52,-1 c -1.963,-0.765 -3.537,-2.285 -4.37,-4.22 -39.1,-90.78 -74.15,-193.43 -43.6,-235.89 12.13,-16.89 36.39,-19.09 51.669,-5.11 0.161,0.14 0.31,0.29 0.461,0.451 l 49.15,51.259 c 0.206,0.214 0.423,0.418 0.65,0.61 9.576,8.136 21.733,12.606 34.299,12.61 L 0,0 Z" /></g><g
           transform="translate(278.8799,161.8099)"
           id="g24"><path
             id="path26"
             style="fill:#383838;fill-opacity:1;fill-rule:nonzero;stroke:none"
             d="m 0,0 c 13.481,0 24.41,-10.929 24.41,-24.41 0,-13.482 -10.929,-24.41 -24.41,-24.41 -13.481,0 -24.41,10.928 -24.41,24.41 C -24.41,-10.929 -13.481,0 0,0" /></g><g
           transform="translate(278.8799,112.9896)"
           id="g28"><path
             id="path30"
             style="fill:#191919;fill-opacity:1;fill-rule:nonzero;stroke:none"
             d="m 0,0 c -13.481,0 -24.41,10.929 -24.41,24.41 0,13.482 10.929,24.41 24.41,24.41 13.481,0 24.41,-10.928 24.41,-24.41 l 0,-0.01 C 24.404,10.923 13.478,0 0,0 M 0,51.92 C -15.193,51.92 -27.51,39.604 -27.51,24.41 -27.51,9.217 -15.193,-3.1 0,-3.1 15.189,-3.1 27.505,9.211 27.51,24.4 27.516,39.594 15.203,51.915 0.01,51.92 l -0.01,0 z" /></g><g
           transform="translate(166.2598,170.5502)"
           id="g32"><path
             id="path34"
             style="fill:#383838;fill-opacity:1;fill-rule:nonzero;stroke:none"
             d="m 0,0 c 19.452,0 35.22,-15.769 35.22,-35.22 0,-19.452 -15.768,-35.22 -35.22,-35.22 -19.451,0 -35.22,15.768 -35.22,35.22 C -35.22,-15.769 -19.451,0 0,0" /></g><g
           transform="translate(166.2598,100.1097)"
           id="g36"><path
             id="path38"
             style="fill:#191919;fill-opacity:1;fill-rule:nonzero;stroke:none"
             d="M 0,0 C -19.451,0 -35.22,15.769 -35.22,35.221 -35.22,54.672 -19.451,70.44 0,70.44 19.452,70.44 35.22,54.672 35.22,35.221 35.22,15.769 19.452,0 0,0 m 0,74.521 c -21.705,0 -39.3,-17.596 -39.3,-39.3 0,-21.705 17.595,-39.301 39.3,-39.301 21.705,0 39.3,17.596 39.3,39.301 0,21.704 -17.595,39.3 -39.3,39.3" /></g><g
           transform="translate(188.5098,145.7103)"
           id="g40"><path
             id="path42"
             style="fill:#898989;fill-opacity:1;fill-rule:nonzero;stroke:none"
             d="m 0,0 -11.88,0 0,11.87 c 0,3.314 -2.686,6 -6,6 l -8.79,0 c -3.313,0 -6,-2.686 -6,-6 l 0,-11.87 -11.84,0 c -3.313,0 -6,-2.687 -6,-6 l 0,-8.79 c 0,-3.314 2.687,-6 6,-6 l 11.87,0 0,-11.87 c 0,-3.314 2.686,-6 6,-6 l 8.79,0 c 3.314,0 6,2.686 6,6 l 0,11.899 11.87,0 c 3.314,0 6,2.687 6,6 l 0,8.79 C 6.004,-2.66 3.31,0.011 0,0" /></g><g
           transform="translate(189.6802,213.7201)"
           id="g44"><path
             id="path46"
             style="fill:#383838;fill-opacity:1;fill-rule:nonzero;stroke:none"
             d="m 0,0 c 5.225,0 9.46,-4.235 9.46,-9.46 0,-5.225 -4.235,-9.46 -9.46,-9.46 -5.225,0 -9.46,4.235 -9.46,9.46 C -9.46,-4.235 -5.225,0 0,0" /></g><g
           transform="translate(219.7202,273.37)"
           id="g48"><path
             id="path50"
             style="fill:#ffffff;fill-opacity:1;fill-rule:nonzero;stroke:none"
             d="m 0,0 c 11.151,0 20.19,-9.04 20.19,-20.19 0,-11.151 -9.039,-20.19 -20.19,-20.19 -11.151,0 -20.19,9.039 -20.19,20.19 C -20.19,-9.04 -11.151,0 0,0" /></g><g
           transform="translate(254.4805,213.7201)"
           id="g52"><path
             id="path54"
             style="fill:#383838;fill-opacity:1;fill-rule:nonzero;stroke:none"
             d="m 0,0 c 5.225,0 9.46,-4.235 9.46,-9.46 0,-5.225 -4.235,-9.46 -9.46,-9.46 -5.225,0 -9.461,4.235 -9.461,9.46 C -9.461,-4.235 -5.225,0 0,0" /></g><g
           transform="translate(111.3398,230.9398)"
           id="g56"><path
             id="path58"
             style="fill:#191919;fill-opacity:1;fill-rule:nonzero;stroke:none"
             d="m 0,0 c 14.735,0 26.68,-11.945 26.68,-26.68 0,-14.735 -11.945,-26.68 -26.68,-26.68 -14.735,0 -26.68,11.945 -26.68,26.68 C -26.68,-11.945 -14.735,0 0,0" /></g><g
           transform="translate(111.3398,228.3099)"
           id="g60"><path
             id="path62"
             style="fill:#383838;fill-opacity:1;fill-rule:nonzero;stroke:none"
             d="M 0,0 C 13.283,0 24.05,-10.768 24.05,-24.05 24.05,-37.333 13.283,-48.1 0,-48.1 c -13.282,0 -24.05,10.767 -24.05,24.05 C -24.05,-10.768 -13.282,0 0,0" /></g><g
           transform="translate(306.3896,218.9999)"
           id="g64"><path
             id="path66"
             style="fill:#16b7ef;fill-opacity:1;fill-rule:nonzero;stroke:none"
             d="m 0,0 c 8.141,0 14.74,-6.599 14.74,-14.74 0,-8.14 -6.599,-14.74 -14.74,-14.74 -8.141,0 -14.739,6.6 -14.739,14.74 C -14.739,-6.599 -8.141,0 0,0" /></g><g
           transform="translate(335.8701,189.37)"
           id="g68"><path
             id="path70"
             style="fill:#00e530;fill-opacity:1;fill-rule:nonzero;stroke:none"
             d="m 0,0 c 8.141,0 14.74,-6.599 14.74,-14.74 0,-8.141 -6.599,-14.74 -14.74,-14.74 -8.141,0 -14.74,6.599 -14.74,14.74 C -14.74,-6.599 -8.141,0 0,0" /></g><g
           transform="translate(335.8701,248.6302)"
           id="g72"><path
             id="path74"
             style="fill:#ffef22;fill-opacity:1;fill-rule:nonzero;stroke:none"
             d="m 0,0 c 8.141,0 14.74,-6.6 14.74,-14.74 0,-8.141 -6.599,-14.74 -14.74,-14.74 -8.141,0 -14.74,6.599 -14.74,14.74 C -14.74,-6.6 -8.141,0 0,0" /></g><g
           transform="translate(365.3496,218.9999)"
           id="g76"><path
             id="path78"
             style="fill:#ea3b3b;fill-opacity:1;fill-rule:nonzero;stroke:none"
             d="m 0,0 c 8.141,0 14.74,-6.599 14.74,-14.74 0,-8.14 -6.599,-14.74 -14.74,-14.74 -8.141,0 -14.739,6.6 -14.739,14.74 C -14.739,-6.599 -8.141,0 0,0" /></g></g></g></g></svg>